<?xml version="1.0" encoding="iso-8859-1"?>
<!-- Uploaded to: SVG Repo, www.svgrepo.com, Generator: SVG Repo Mixer Tools -->
<svg fill="#000000" height="800px" width="800px" version="1.1" id="Layer_1" xmlns="http://www.w3.org/2000/svg" xmlns:xlink="http://www.w3.org/1999/xlink" 
	 viewBox="0 0 512 512" xml:space="preserve">
<g>
	<g>
		<g>
			<path d="M469.333,145.067c-4.719,0-8.533,3.814-8.533,8.533s3.814,8.533,8.533,8.533s8.533-3.814,8.533-8.533
				S474.052,145.067,469.333,145.067z"/>
			<path d="M469.333,349.867c-4.719,0-8.533,3.814-8.533,8.533s3.814,8.533,8.533,8.533s8.533-3.814,8.533-8.533
				S474.052,349.867,469.333,349.867z"/>
			<path d="M42.667,145.067c-4.719,0-8.533,3.814-8.533,8.533s3.814,8.533,8.533,8.533s8.533-3.814,8.533-8.533
				S47.386,145.067,42.667,145.067z"/>
			<path d="M42.667,349.867c-4.719,0-8.533,3.814-8.533,8.533s3.814,8.533,8.533,8.533s8.533-3.814,8.533-8.533
				S47.386,349.867,42.667,349.867z"/>
			<path d="M469.333,110.933H42.667C19.104,110.933,0,130.037,0,153.6v204.8c0,23.563,19.104,42.667,42.667,42.667h426.667
				c23.563,0,42.667-19.104,42.667-42.667V153.6C512,130.037,492.896,110.933,469.333,110.933z M494.933,358.4
				c0,14.137-11.463,25.6-25.6,25.6H42.667c-14.137,0-25.6-11.463-25.6-25.6V153.6c0-14.137,11.463-25.6,25.6-25.6h426.667
				c14.137,0,25.6,11.463,25.6,25.6V358.4z"/>
			<path d="M119.467,281.6H128c0,4.713,3.82,8.533,8.533,8.533h34.133c4.713,0,8.533-3.82,8.533-8.533h8.533
				c4.713,0,8.533-3.82,8.533-8.533V230.4c0-4.713-3.82-8.533-8.533-8.533h-68.267c-4.713,0-8.533,3.82-8.533,8.533v42.667
				C110.933,277.78,114.754,281.6,119.467,281.6z M128,238.933h51.2v25.6h-8.533c-4.713,0-8.533,3.82-8.533,8.533h-17.067
				c0-4.713-3.82-8.533-8.533-8.533H128V238.933z"/>
			<path d="M221.867,196.268H85.333c-4.713,0-8.533,3.82-8.533,8.533v102.4c0,4.713,3.82,8.533,8.533,8.533h136.533
				c4.713,0,8.533-3.82,8.533-8.533v-102.4C230.4,200.089,226.58,196.268,221.867,196.268z M213.333,298.668H93.867v-85.333h119.467
				V298.668z"/>
			<path d="M332.8,221.867c-4.713,0-8.533,3.82-8.533,8.533v17.067c0,4.713,3.821,8.533,8.533,8.533c4.713,0,8.533-3.82,8.533-8.533
				V230.4C341.333,225.687,337.513,221.867,332.8,221.867z"/>
			<path d="M401.067,221.867c-4.713,0-8.533,3.82-8.533,8.533v17.067c0,4.713,3.821,8.533,8.533,8.533s8.533-3.82,8.533-8.533V230.4
				C409.6,225.687,405.78,221.867,401.067,221.867z"/>
			<path d="M366.933,264.533c-9.421,0-17.067,7.646-17.067,17.067v4.267c0,2.355,1.911,4.267,4.267,4.267h25.6
				c2.355,0,4.267-1.911,4.267-4.267V281.6C384,272.179,376.354,264.533,366.933,264.533z"/>
			<path d="M431.1,187.733H302.767c-3.378,0-6.438,1.992-7.804,5.082c-17.817,40.283-17.817,86.087,0,126.37
				c1.366,3.089,4.426,5.082,7.804,5.082H431.1c3.378,0,6.438-1.992,7.804-5.082c17.817-40.283,17.817-86.087,0-126.37
				C437.537,189.726,434.478,187.733,431.1,187.733z M425.425,307.2H308.442c-13.034-32.917-13.034-69.483,0-102.4h116.983
				C438.458,237.717,438.458,274.284,425.425,307.2z"/>
		</g>
	</g>
</g>
</svg>