<svg width="68" height="68" viewBox="0 0 68 68" fill="none" xmlns="http://www.w3.org/2000/svg">
<rect width="68" height="68" fill="#374151"/>
<rect x="-84.5" y="-19.5" width="472" height="195" rx="4.5" stroke="#9747FF" stroke-dasharray="10 5"/>
<path d="M50.1922 44.6355C49.4134 43.614 48.4858 42.715 47.4403 41.9686L47.4509 41.958L50.2878 39.6949C50.6235 39.4264 51.0463 39.291 51.4755 39.3145C51.9048 39.3381 52.3103 39.5189 52.6147 39.8224C52.918 40.129 53.0985 40.5362 53.122 40.9669C53.1455 41.3977 53.0104 41.8221 52.7421 42.1599C51.8815 43.233 50.7659 44.6249 50.7659 44.6249H50.2028L50.1922 44.6355ZM31.184 41.9686C30.0194 42.8057 28.997 43.8245 28.1559 44.9861L25.8822 42.1599C25.6117 41.823 25.4752 41.3981 25.4987 40.9668C25.5222 40.5354 25.7042 40.1279 26.0097 39.8224C26.3151 39.5169 26.7226 39.335 27.154 39.3114C27.5854 39.2879 28.0103 39.4245 28.3472 39.6949L31.1734 41.958L31.184 41.9686ZM28.3472 66.5549C28.009 66.8223 27.5848 66.9569 27.1543 66.9334C26.7238 66.9099 26.3167 66.73 26.0097 66.4274C25.7063 66.1208 25.5258 65.7136 25.5023 65.2828C25.4788 64.8521 25.6139 64.4277 25.8822 64.0899L28.1559 61.2636C28.997 62.4253 30.0194 63.4441 31.184 64.2811L31.1734 64.2918L28.3472 66.5549Z" fill="#38424E"/>
<path d="M39.3125 42.5C41.4139 42.5 43.4682 43.1231 45.2154 44.2906C46.9627 45.4581 48.3245 47.1175 49.1287 49.059C49.9329 51.0005 50.1433 53.1368 49.7333 55.1978C49.3234 57.2589 48.3114 59.1521 46.8255 60.638C45.3396 62.1239 43.4464 63.1359 41.3853 63.5458C39.3243 63.9558 37.188 63.7454 35.2465 62.9412C33.305 62.137 31.6456 60.7752 30.4781 59.0279C29.3106 57.2807 28.6875 55.2264 28.6875 53.125C28.6885 50.3074 29.8083 47.6055 31.8006 45.6131C33.793 43.6208 36.4949 42.501 39.3125 42.5ZM43.5625 54.1875V52.0625C43.5635 51.7832 43.5092 51.5064 43.4027 51.2482C43.2963 50.9899 43.1398 50.7553 42.9423 50.5577C42.7447 50.3602 42.5101 50.2037 42.2518 50.0973C41.9936 49.9908 41.7168 49.9365 41.4375 49.9375H37.1875C36.9084 49.9374 36.6321 49.9923 36.3742 50.0991C36.1164 50.2059 35.8821 50.3624 35.6847 50.5597C35.4874 50.7571 35.3309 50.9914 35.2241 51.2492C35.1173 51.5071 35.0624 51.7834 35.0625 52.0625V54.1875C35.0641 54.7506 35.2886 55.2901 35.6867 55.6883C36.0849 56.0864 36.6244 56.3109 37.1875 56.3125H41.4375C41.7166 56.3126 41.9929 56.2577 42.2508 56.1509C42.5086 56.0441 42.7429 55.8876 42.9403 55.6903C43.1376 55.4929 43.2941 55.2586 43.4009 55.0008C43.5077 54.7429 43.5626 54.4666 43.5625 54.1875Z" fill="#4D5662"/>
<path d="M43.5625 52.0625V54.1875C43.5626 54.4666 43.5077 54.743 43.4009 55.0008C43.2941 55.2587 43.1376 55.493 42.9403 55.6903C42.7429 55.8876 42.5086 56.0442 42.2508 56.1509C41.9929 56.2577 41.7166 56.3126 41.4375 56.3125H37.1875C36.6244 56.3109 36.0849 56.0865 35.6867 55.6883C35.2886 55.2901 35.0641 54.7506 35.0625 54.1875V52.0625C35.0624 51.7834 35.1173 51.5071 35.2241 51.2492C35.3309 50.9914 35.4874 50.7571 35.6847 50.5597C35.8821 50.3624 36.1164 50.2059 36.3742 50.0991C36.6321 49.9923 36.9084 49.9374 37.1875 49.9375H41.4375C41.7168 49.9365 41.9936 49.9908 42.2518 50.0973C42.5101 50.2037 42.7447 50.3602 42.9423 50.5577C43.1398 50.7553 43.2963 50.9899 43.4027 51.2482C43.5092 51.5064 43.5635 51.7832 43.5625 52.0625Z" fill="#D8E0EB"/>
<path d="M25.5 53.125C25.4976 50.1987 26.4281 47.3478 28.1563 44.9862C28.9974 43.8246 30.0198 42.8058 31.1844 41.9688C33.543 40.2428 36.3898 39.3125 39.3125 39.3125C42.2352 39.3125 45.082 40.2428 47.4406 41.9688C48.4861 42.7151 49.4137 43.6141 50.1925 44.6356C51.651 46.482 52.6064 48.6746 52.9656 51C53.0727 51.7033 53.126 52.4136 53.125 53.125C53.125 53.4862 53.1144 53.8369 53.0825 54.1875C52.9107 56.4535 52.1767 58.6409 50.9469 60.5519C50.8088 60.775 50.66 60.9981 50.49 61.2212C49.6509 62.4038 48.6203 63.4381 47.4406 64.2812C45.082 66.0072 42.2352 66.9375 39.3125 66.9375C36.3898 66.9375 33.543 66.0072 31.1844 64.2812C30.0198 63.4442 28.9974 62.4254 28.1563 61.2638C26.4281 58.9022 25.4976 56.0513 25.5 53.125ZM39.3125 42.5C37.2111 42.5 35.1568 43.1231 33.4096 44.2906C31.6623 45.4581 30.3005 47.1175 29.4963 49.059C28.6921 51.0005 28.4817 53.1368 28.8917 55.1978C29.3016 57.2589 30.3136 59.1521 31.7995 60.638C33.2854 62.1239 35.1786 63.1359 37.2397 63.5458C39.3007 63.9558 41.4371 63.7454 43.3785 62.9412C45.32 62.137 46.9794 60.7752 48.1469 59.0279C49.3144 57.2807 49.9375 55.2264 49.9375 53.125C49.9365 50.3074 48.8167 47.6055 46.8244 45.6131C44.832 43.6208 42.1301 42.501 39.3125 42.5Z" fill="#636A74"/>
<path d="M50.5004 61.2318L52.7423 64.0899C53.0128 64.4255 53.1498 64.8492 53.1272 65.2796C53.1046 65.71 52.924 66.117 52.6198 66.4224C52.3157 66.7278 51.9096 66.9103 51.4792 66.9347C51.0489 66.9592 50.6247 66.824 50.2879 66.5549L47.4511 64.2918L47.4404 64.2812C48.6201 63.438 49.6507 62.4038 50.4898 61.2212L50.5004 61.2318Z" fill="#38424E"/>
<path d="M57.3749 59.5V60.5625H50.9574L50.9468 60.5519C52.1765 58.6409 52.9105 56.4535 53.0824 54.1875H57.3749V59.5ZM50.7661 44.625H57.3749V51H52.9655C52.6063 48.6746 51.6509 46.482 50.1924 44.6356L50.203 44.625H50.7661Z" fill="#4D5662"/>
<path d="M66.9375 32.9375V53.1144C66.9376 53.953 66.7726 54.7834 66.4517 55.5582C66.1308 56.333 65.6605 57.037 65.0675 57.63C64.4745 58.223 63.7705 58.6933 62.9957 59.0142C62.2209 59.3351 61.3905 59.5001 60.5519 59.5H57.375V55.25H59.4681C60.3212 55.2476 61.1387 54.9076 61.7419 54.3044C62.3451 53.7012 62.6851 52.8837 62.6875 52.0306V34C62.687 32.5912 62.1271 31.2402 61.1309 30.2441C60.1348 29.2479 58.7838 28.688 57.375 28.6875H56.3125V24.4375H58.4375C59.5538 24.4372 60.6593 24.6568 61.6907 25.0839C62.7221 25.511 63.6592 26.137 64.4486 26.9264C65.238 27.7158 65.864 28.6529 66.2911 29.6843C66.7182 30.7157 66.9378 31.8212 66.9375 32.9375Z" fill="#B7C3D5"/>
<path d="M56.3125 28.6875V44.625H50.7662C50.7662 44.625 51.8819 43.2331 52.7425 42.16C52.9123 41.9492 53.0309 41.7018 53.0889 41.4374C53.147 41.1729 53.1429 40.8986 53.077 40.636C53.0111 40.3735 52.8851 40.1298 52.7091 39.9241C52.5331 39.7184 52.3117 39.5563 52.0625 39.4506V21.25C52.063 19.9941 51.816 18.7504 51.3356 17.59C50.8552 16.4296 50.1509 15.3753 49.2628 14.4872C48.3748 13.5991 47.3204 12.8948 46.16 12.4144C44.9996 11.934 43.7559 11.687 42.5 11.6875H35.0625V7.43751H43.5625C45.2375 7.43526 46.8965 7.76352 48.4444 8.40347C49.9923 9.04342 51.3987 9.98249 52.5831 11.1669C53.7675 12.3513 54.7066 13.7577 55.3465 15.3056C55.9865 16.8536 56.3147 18.5125 56.3125 20.1875V28.6875Z" fill="#CAD1E1"/>
<path d="M52.0625 24.4375H35.0625V28.6875H52.0625V24.4375Z" fill="#B7C3D5"/>
<path d="M31.535 27.9862C31.9219 28.4699 32.1168 29.0793 32.0825 29.6978C32.0482 30.3162 31.7871 30.9003 31.3491 31.3383C30.9111 31.7763 30.327 32.0375 29.7085 32.0718C29.09 32.1061 28.4806 31.9111 27.9969 31.5243L23.8531 28.2199C25.6707 27.1779 27.178 25.6706 28.22 23.853L31.535 27.9862ZM12.3994 28.2837L8.34063 31.5243C7.85696 31.9117 7.24737 32.1071 6.62862 32.073C6.00986 32.0389 5.42542 31.7777 4.98723 31.3395C4.54904 30.9014 4.2879 30.3169 4.25381 29.6982C4.21973 29.0794 4.4151 28.4698 4.8025 27.9862L7.99 24.0018C9.05436 25.7946 10.5761 27.2723 12.3994 28.2837Z" fill="#7A8089"/>
<path d="M35.0625 35.0625H1.0625V1.0625H35.0625V35.0625ZM4.99375 31.3438C5.43098 31.7816 6.01469 32.0423 6.63256 32.0756C7.25044 32.109 7.85881 31.9126 8.34062 31.5244L12.3994 28.2838C14.153 29.2586 16.1283 29.7649 18.1346 29.7537C20.1409 29.7426 22.1105 29.2143 23.8531 28.22L27.9969 31.5244C28.4805 31.9118 29.0901 32.1072 29.7089 32.0731C30.3276 32.039 30.9121 31.7778 31.3503 31.3396C31.7885 30.9015 32.0496 30.317 32.0837 29.6983C32.1178 29.0795 31.9224 28.4699 31.535 27.9862L28.22 23.8531C29.2268 22.0896 29.7543 20.0932 29.75 18.0625C29.7529 16.8241 29.5556 15.5935 29.1656 14.4181C28.9441 13.7158 28.6485 13.0391 28.2838 12.3994L31.535 8.34062C31.8942 7.89542 32.0893 7.34017 32.0875 6.76813C32.0871 6.29401 31.953 5.82963 31.7004 5.4284C31.4478 5.02716 31.0871 4.70537 30.6598 4.50002C30.2325 4.29468 29.7558 4.21413 29.2848 4.26764C28.8137 4.32115 28.3673 4.50654 27.9969 4.8025L24.0019 7.99C22.5673 7.14743 20.9698 6.61977 19.3156 6.44208C17.6614 6.26438 15.9883 6.44072 14.4075 6.95938C13.6566 7.20496 12.9336 7.52904 12.2506 7.92625L8.34062 4.8025C7.97023 4.50654 7.52382 4.32115 7.05274 4.26764C6.58166 4.21413 6.10504 4.29468 5.67771 4.50002C5.25037 4.70537 4.88968 5.02716 4.63711 5.4284C4.38454 5.82963 4.25036 6.29401 4.25 6.76813C4.24821 7.34017 4.4433 7.89542 4.8025 8.34062L7.92625 12.24C7.1099 13.6657 6.60201 15.247 6.43546 16.8814C6.2689 18.5158 6.44739 20.167 6.95938 21.7281C7.22433 22.5193 7.56968 23.2812 7.99 24.0019L4.8025 27.9862C4.4141 28.4707 4.21873 29.0818 4.25404 29.7017C4.28936 30.3216 4.55285 30.9065 4.99375 31.3438Z" fill="#636A74"/>
<path d="M32.0875 6.76804C32.0893 7.34009 31.8942 7.89533 31.535 8.34054L28.2838 12.3993C27.2725 10.576 25.7947 9.05427 24.0019 7.98992L27.9969 4.80242C28.3673 4.50646 28.8137 4.32107 29.2848 4.26756C29.7559 4.21405 30.2325 4.2946 30.6598 4.49994C31.0871 4.70528 31.4478 5.02708 31.7004 5.42832C31.953 5.82955 32.0872 6.29393 32.0875 6.76804ZM8.34064 4.80242L12.2506 7.92617C10.4549 8.95875 8.96326 10.4467 7.92626 12.2399L4.80251 8.34054C4.44331 7.89533 4.24822 7.34009 4.25001 6.76804C4.25037 6.29393 4.38455 5.82955 4.63712 5.42832C4.88969 5.02708 5.25038 4.70528 5.67772 4.49994C6.10505 4.2946 6.58167 4.21405 7.05275 4.26756C7.52383 4.32107 7.97024 4.50646 8.34064 4.80242Z" fill="#7A8089"/>
<path d="M18.0621 21.25C18.0621 25.5 19.6027 27.0406 21.7277 29.1656C20.1958 29.6685 18.5766 29.8498 16.9713 29.698C15.3661 29.5463 13.8095 29.0648 12.399 28.2838C10.5757 27.2724 9.05397 25.7947 7.98961 24.0019C7.56929 23.2812 7.22394 22.5193 6.95898 21.7281C9.08398 19.6031 10.6246 18.0625 14.8746 18.0625C14.874 18.4812 14.9561 18.896 15.1161 19.283C15.2761 19.6699 15.5109 20.0216 15.807 20.3176C16.1031 20.6137 16.4547 20.8485 16.8416 21.0085C17.2286 21.1685 17.6434 21.2506 18.0621 21.25Z" fill="#D8E0EB"/>
<path d="M14.4075 6.95947C16.5325 9.08447 18.0625 10.6251 18.0625 14.8751C17.6438 14.8745 17.229 14.9566 16.842 15.1166C16.4551 15.2766 16.1035 15.5113 15.8074 15.8074C15.5113 16.1035 15.2765 16.4552 15.1165 16.8421C14.9565 17.2291 14.8744 17.6439 14.875 18.0626C10.625 18.0626 9.08438 19.6032 6.95938 21.7282C6.4474 20.1671 6.26891 18.5159 6.43546 16.8815C6.60202 15.2471 7.1099 13.6658 7.92625 12.2401C8.96325 10.4469 10.4549 8.95893 12.2506 7.92635C12.9336 7.52914 13.6566 7.20506 14.4075 6.95947Z" fill="#CAD1E1"/>
<path d="M18.0625 21.25C19.8229 21.25 21.25 19.8229 21.25 18.0625C21.25 16.3021 19.8229 14.875 18.0625 14.875C16.3021 14.875 14.875 16.3021 14.875 18.0625C14.875 19.8229 16.3021 21.25 18.0625 21.25Z" fill="#7A8089"/>
<path d="M29.1656 14.4182C29.5556 15.5936 29.7529 16.8242 29.75 18.0626C29.7543 20.0933 29.2268 22.0897 28.22 23.8532C27.178 25.6708 25.6707 27.1781 23.8531 28.2201C23.1784 28.606 22.4665 28.9228 21.7281 29.1657C19.6031 27.0407 18.0625 25.5001 18.0625 21.2501C18.4812 21.2506 18.896 21.1686 19.283 21.0086C19.6699 20.8486 20.0216 20.6138 20.3176 20.3177C20.6137 20.0216 20.8485 19.67 21.0085 19.2831C21.1685 18.8961 21.2506 18.4813 21.25 18.0626C25.5 18.0626 27.0087 16.5538 29.1444 14.4288L29.1656 14.4182Z" fill="#CAD1E1"/>
<path d="M28.2835 12.3994C28.6482 13.0391 28.9439 13.7158 29.1654 14.4181L29.1441 14.4288C27.0085 16.5538 25.4997 18.0625 21.2497 18.0625C21.2503 17.6438 21.1682 17.229 21.0082 16.842C20.8482 16.4551 20.6135 16.1034 20.3174 15.8074C20.0213 15.5113 19.6697 15.2765 19.2827 15.1165C18.8957 14.9565 18.481 14.8744 18.0622 14.875C18.0622 10.625 16.5322 9.08438 14.4072 6.95938C15.988 6.44072 17.6611 6.26438 19.3153 6.44208C20.9695 6.61977 22.567 7.14743 24.0016 7.99C25.7944 9.05436 27.2722 10.5761 28.2835 12.3994Z" fill="#D8E0EB"/>
<path d="M3.18848 16.9995H1.06348V19.1245H3.18848C3.47027 19.1245 3.74052 19.0126 3.93978 18.8133C4.13903 18.6141 4.25098 18.3438 4.25098 18.062C4.25098 17.7802 4.13903 17.51 3.93978 17.3107C3.74052 17.1115 3.47027 16.9995 3.18848 16.9995ZM3.18848 20.187H1.06348V22.312H3.18848C3.47027 22.312 3.74052 22.2001 3.93978 22.0008C4.13903 21.8016 4.25098 21.5313 4.25098 21.2495C4.25098 20.9677 4.13903 20.6975 3.93978 20.4982C3.74052 20.299 3.47027 20.187 3.18848 20.187ZM4.25098 14.8745C4.25101 14.735 4.22356 14.5968 4.17017 14.4679C4.11679 14.3389 4.03853 14.2218 3.93986 14.1231C3.84119 14.0245 3.72405 13.9462 3.59512 13.8928C3.4662 13.8394 3.32802 13.812 3.18848 13.812H1.06348V15.937H3.18848C3.32802 15.937 3.4662 15.9096 3.59512 15.8562C3.72405 15.8028 3.84119 15.7246 3.93986 15.6259C4.03853 15.5272 4.11679 15.4101 4.17017 15.2812C4.22356 15.1522 4.25101 15.0141 4.25098 14.8745ZM31.877 18.062C31.877 18.2016 31.9045 18.3397 31.9578 18.4687C32.0112 18.5976 32.0895 18.7147 32.1882 18.8134C32.2868 18.9121 32.404 18.9903 32.5329 19.0437C32.6618 19.0971 32.8 19.1245 32.9395 19.1245H35.0645V16.9995H32.9395C32.8 16.9995 32.6618 17.0269 32.5329 17.0803C32.404 17.1337 32.2868 17.212 32.1882 17.3106C32.0895 17.4093 32.0112 17.5264 31.9578 17.6554C31.9045 17.7843 31.877 17.9225 31.877 18.062ZM31.877 21.2495C31.877 21.3891 31.9045 21.5272 31.9578 21.6562C32.0112 21.7851 32.0895 21.9022 32.1882 22.0009C32.2868 22.0996 32.404 22.1778 32.5329 22.2312C32.6618 22.2846 32.8 22.312 32.9395 22.312H35.0645V20.187H32.9395C32.8 20.187 32.6618 20.2144 32.5329 20.2678C32.404 20.3212 32.2868 20.3995 32.1882 20.4981C32.0895 20.5968 32.0112 20.7139 31.9578 20.8429C31.9045 20.9718 31.877 21.11 31.877 21.2495ZM32.9395 13.812C32.6577 13.812 32.3875 13.924 32.1882 14.1232C31.989 14.3225 31.877 14.5927 31.877 14.8745C31.877 15.1563 31.989 15.4266 32.1882 15.6258C32.3875 15.8251 32.6577 15.937 32.9395 15.937H35.0645V13.812H32.9395Z" fill="#4D5662"/>
<path d="M28.7097 8.5C28.5702 8.50068 28.4319 8.47387 28.3028 8.42111C28.1736 8.36834 28.0561 8.29065 27.9569 8.19247C27.7567 7.99419 27.6434 7.72448 27.6421 7.44269C27.6407 7.1609 27.7513 6.8901 27.9496 6.68987C28.1479 6.48964 28.4176 6.37638 28.6994 6.375H28.7097C28.9915 6.375 29.2618 6.48694 29.461 6.6862C29.6603 6.88546 29.7722 7.15571 29.7722 7.4375C29.7722 7.71929 29.6603 7.98954 29.461 8.1888C29.2618 8.38806 28.9915 8.5 28.7097 8.5ZM7.6683 8.5C7.38651 8.50138 7.11571 8.39076 6.91548 8.19248C6.71524 7.9942 6.60198 7.7245 6.6006 7.44271C6.59922 7.16091 6.70984 6.89011 6.90812 6.68988C7.1064 6.48965 7.3761 6.37638 7.65789 6.375H7.6683C7.9501 6.375 8.22035 6.48694 8.41961 6.6862C8.61886 6.88546 8.7308 7.15571 8.7308 7.4375C8.7308 7.71929 8.61886 7.98954 8.41961 8.1888C8.22035 8.38806 7.9501 8.5 7.6683 8.5ZM28.7097 29.956C28.5702 29.9566 28.4319 29.9298 28.3028 29.8771C28.1736 29.8243 28.0561 29.7466 27.9569 29.6484C27.7567 29.4502 27.6434 29.1804 27.6421 28.8987C27.6407 28.6169 27.7513 28.3461 27.9496 28.1458C28.1479 27.9456 28.4176 27.8323 28.6994 27.831H28.7097C28.9915 27.831 29.2618 27.9429 29.461 28.1422C29.6603 28.3414 29.7722 28.6117 29.7722 28.8935C29.7722 29.1753 29.6603 29.4455 29.461 29.6448C29.2618 29.844 28.9915 29.956 28.7097 29.956ZM7.6683 29.956C7.52878 29.9566 7.39048 29.9298 7.26131 29.8771C7.13214 29.8243 7.01463 29.7466 6.91548 29.6484C6.71525 29.4502 6.60199 29.1804 6.60061 28.8987C6.59993 28.7591 6.62674 28.6208 6.67951 28.4917C6.73227 28.3625 6.80996 28.245 6.90814 28.1458C7.00632 28.0467 7.12307 27.9679 7.25172 27.9138C7.38037 27.8598 7.51839 27.8316 7.65792 27.831H7.6683C7.9501 27.831 8.22035 27.9429 8.41961 28.1422C8.61886 28.3414 8.7308 28.6117 8.7308 28.8935C8.7308 29.1753 8.61886 29.4455 8.41961 29.6448C8.22035 29.844 7.9501 29.956 7.6683 29.956Z" fill="#636A74"/>
</svg>
