<svg width="51" height="51" viewBox="0 0 51 51" fill="none" xmlns="http://www.w3.org/2000/svg">
<path d="M20.3712 23.3712C20.4676 23.2747 20.6404 23.1546 21.1899 23.0801C21.7775 23.0018 22.5744 23 23.808 23H27.192C28.4256 23 29.2225 23.0018 29.8083 23.0819C30.3596 23.1546 30.5324 23.2747 30.627 23.373C30.7253 23.4676 30.8454 23.6404 30.9181 24.1917C30.9982 24.7775 31 25.5744 31 26.808V30.192C31 31.4256 30.9982 32.2225 30.9181 32.8083C30.8454 33.3596 30.7253 33.5324 30.627 33.627C30.5324 33.7253 30.3596 33.8454 29.8083 33.9181C29.2225 33.9982 28.4256 34 27.192 34H23.808C22.5744 34 21.7775 33.9982 21.1917 33.9181C20.6404 33.8454 20.4676 33.7253 20.373 33.627C20.2747 33.5324 20.1546 33.3596 20.0819 32.8083C20.0018 32.2225 20 31.4256 20 30.192V26.808C20 25.5744 20.0018 24.7775 20.0819 24.1917C20.1546 23.6404 20.2747 23.4676 20.373 23.373" fill="black"/>
<path fill-rule="evenodd" clip-rule="evenodd" d="M25.5 6.375C26.3181 6.375 26.9832 7.038 26.9832 7.85825V13.787C28.067 13.7912 29.053 13.7976 29.9476 13.8231V7.85825C29.9621 7.47486 30.1247 7.11201 30.401 6.8459C30.6774 6.5798 31.0461 6.43113 31.4298 6.43113C31.8135 6.43113 32.1822 6.5798 32.4586 6.8459C32.735 7.11201 32.8975 7.47486 32.912 7.85825V13.787C32.9122 13.8638 32.9066 13.9406 32.895 14.0165C34.884 14.2609 36.2631 14.7666 37.3108 15.8142C38.3584 16.8619 38.8641 18.241 39.1085 20.23C39.1844 20.2184 39.2612 20.2127 39.338 20.213H45.2668C45.6501 20.2275 46.013 20.39 46.2791 20.6664C46.5452 20.9428 46.6939 21.3115 46.6939 21.6952C46.6939 22.0789 46.5452 22.4476 46.2791 22.724C46.013 23.0003 45.6501 23.1629 45.2668 23.1774H39.3019C39.3274 24.072 39.3359 25.058 39.338 26.1418H45.2668C45.6601 26.1418 46.0374 26.298 46.3156 26.5762C46.5937 26.8543 46.75 27.2316 46.75 27.625C46.75 28.0184 46.5937 28.3957 46.3156 28.6738C46.0374 28.952 45.6601 29.1082 45.2668 29.1082H39.338C39.3337 30.192 39.3274 31.178 39.3019 32.0726H45.2668C45.6501 32.0871 46.013 32.2497 46.2791 32.526C46.5452 32.8024 46.6939 33.1711 46.6939 33.5548C46.6939 33.9385 46.5452 34.3072 46.2791 34.5836C46.013 34.86 45.6501 35.0225 45.2668 35.037H39.338C39.2612 35.0372 39.1844 35.0316 39.1085 35.02C38.8641 37.009 38.3584 38.3881 37.3108 39.4358C36.2631 40.4834 34.884 40.9891 32.895 41.2335C32.9071 41.3094 32.9128 41.3862 32.912 41.463V47.3918C32.8975 47.7751 32.735 48.138 32.4586 48.4041C32.1822 48.6702 31.8135 48.8189 31.4298 48.8189C31.0461 48.8189 30.6774 48.6702 30.401 48.4041C30.1247 48.138 29.9621 47.7751 29.9476 47.3918V41.4269C28.9597 41.4518 27.9715 41.4638 26.9832 41.463V47.3918C26.9832 47.7851 26.827 48.1624 26.5488 48.4406C26.2707 48.7187 25.8934 48.875 25.5 48.875C25.1066 48.875 24.7293 48.7187 24.4512 48.4406C24.173 48.1624 24.0168 47.7851 24.0168 47.3918V41.463C23.0285 41.4632 22.0403 41.4512 21.0524 41.4269V47.3918C21.0379 47.7751 20.8753 48.138 20.599 48.4041C20.3226 48.6702 19.9539 48.8189 19.5702 48.8189C19.1865 48.8189 18.8178 48.6702 18.5414 48.4041C18.265 48.138 18.1025 47.7751 18.088 47.3918V41.463C18.088 41.3844 18.0923 41.3079 18.105 41.2335C16.116 40.9891 14.7369 40.4834 13.6892 39.4358C12.6416 38.3881 12.1359 37.009 11.8915 35.02C11.8156 35.0316 11.7388 35.0372 11.662 35.037H5.73325C5.34986 35.0225 4.98701 34.86 4.7209 34.5836C4.4548 34.3072 4.30613 33.9385 4.30613 33.5548C4.30613 33.1711 4.4548 32.8024 4.7209 32.526C4.98701 32.2497 5.34986 32.0871 5.73325 32.0726H11.6981C11.6738 31.0847 11.6618 30.0965 11.662 29.1082H5.73325C5.33987 29.1082 4.9626 28.952 4.68443 28.6738C4.40627 28.3957 4.25 28.0184 4.25 27.625C4.25 27.2316 4.40627 26.8543 4.68443 26.5762C4.9626 26.298 5.33987 26.1418 5.73325 26.1418H11.662C11.6662 25.058 11.6726 24.072 11.6981 23.1774H5.73325C5.34986 23.1629 4.98701 23.0003 4.7209 22.724C4.4548 22.4476 4.30613 22.0789 4.30613 21.6952C4.30613 21.3115 4.4548 20.9428 4.7209 20.6664C4.98701 20.39 5.34986 20.2275 5.73325 20.213H11.662C11.7406 20.213 11.8171 20.2173 11.8915 20.23C12.1359 18.241 12.6416 16.8619 13.6892 15.8142C14.7369 14.7666 16.116 14.2609 18.105 14.0165C18.0934 13.9406 18.0877 13.8638 18.088 13.787V7.85825C18.1025 7.47486 18.265 7.11201 18.5414 6.8459C18.8178 6.5798 19.1865 6.43113 19.5702 6.43113C19.9539 6.43113 20.3226 6.5798 20.599 6.8459C20.8753 7.11201 21.0379 7.47486 21.0524 7.85825V13.8231C22.0403 13.7982 23.0285 13.7862 24.0168 13.787V7.85825C24.0168 7.038 24.6819 6.375 25.5 6.375ZM23.426 18.2346C22.1106 18.2346 20.978 18.2346 20.0728 18.3579C19.0995 18.4875 18.1688 18.7829 17.4123 19.5373C16.6579 20.2938 16.3625 21.2245 16.2329 22.1978C16.1096 23.1051 16.1096 24.2378 16.1096 25.551V29.699C16.1096 31.0144 16.1096 32.1449 16.2329 33.0522C16.3625 34.0255 16.6579 34.9562 17.4123 35.7127C18.1688 36.4671 19.0995 36.7625 20.0728 36.8921C20.978 37.0154 22.1128 37.0154 23.426 37.0154H27.574C28.8894 37.0154 30.0199 37.0154 30.9272 36.8921C31.9005 36.7625 32.8312 36.4671 33.5877 35.7127C34.3421 34.9562 34.6375 34.0255 34.7671 33.0522C34.8904 32.1449 34.8904 31.0122 34.8904 29.699V25.551C34.8904 24.2356 34.8904 23.1051 34.7671 22.1978C34.6375 21.2245 34.3421 20.2938 33.5877 19.5373C32.8312 18.7829 31.9005 18.4875 30.9272 18.3579C30.0199 18.2346 28.8872 18.2346 27.574 18.2346H23.426Z" fill="black"/>
</svg>